<?xml version="1.0" standalone="no"?>
<!DOCTYPE svg PUBLIC "-//W3C//DTD SVG 20010904//EN"
 "http://www.w3.org/TR/2001/REC-SVG-20010904/DTD/svg10.dtd">
<svg version="1.0" xmlns="http://www.w3.org/2000/svg"
 width="1080.000000pt" height="1080.000000pt" viewBox="0 0 1080.000000 1080.000000"
 preserveAspectRatio="xMidYMid meet">

<g transform="translate(0.000000,1080.000000) scale(0.100000,-0.100000)"
fill="#000000" stroke="none">
<path d="M1340 10789 c-500 -56 -947 -370 -1174 -824 -62 -123 -104 -241 -138
-390 l-23 -100 -3 -4000 c-2 -2917 0 -4031 8 -4113 35 -353 187 -669 440 -921
206 -204 463 -341 775 -413 l100 -23 4000 -3 c2917 -2 4031 0 4113 8 353 35
669 187 921 440 204 206 341 463 413 775 l23 100 3 4000 c2 2917 0 4031 -8
4113 -35 353 -187 669 -440 921 -206 204 -463 341 -775 413 l-100 23 -4030 1
c-2216 1 -4064 -2 -4105 -7z m4276 -1869 c575 -29 1054 -162 1519 -423 413
-231 816 -624 1086 -1059 217 -350 348 -698 416 -1103 21 -126 29 -507 13
-648 -46 -425 -163 -827 -359 -1226 -28 -57 -51 -110 -51 -118 0 -18 -23 -16
-116 7 -79 21 -184 65 -184 78 0 4 27 54 61 112 278 478 409 924 409 1395 0
583 -203 1148 -594 1655 -103 134 -332 369 -461 473 -552 446 -1200 646 -2020
624 -245 -7 -364 -20 -565 -61 -533 -110 -1043 -394 -1435 -798 -395 -405
-634 -873 -742 -1448 -22 -120 -25 -498 -5 -635 62 -413 190 -769 426 -1183
l59 -103 -22 -23 -23 -24 57 -62 c49 -54 55 -63 43 -78 -7 -9 -18 -20 -25 -25
-7 -4 -28 -38 -48 -76 -25 -47 -64 -96 -128 -159 -51 -51 -102 -98 -113 -107
-20 -13 -23 -13 -28 1 -13 34 -5 130 14 173 11 23 48 70 82 104 58 57 108 137
108 175 0 8 8 24 18 35 13 15 3 12 -38 -11 -96 -52 -104 -51 -143 15 -172 295
-360 768 -427 1078 -47 214 -63 352 -64 555 0 207 11 311 55 515 121 553 387
1038 803 1464 501 512 1179 830 1916 900 103 10 151 13 285 19 22 1 122 -3
221 -8z m74 -438 l85 -7 18 -38 c11 -20 34 -90 53 -155 18 -65 52 -167 75
-227 23 -61 54 -145 70 -188 15 -42 82 -200 148 -350 65 -149 131 -301 146
-337 15 -36 47 -108 70 -160 24 -52 69 -151 100 -220 107 -238 160 -347 345
-715 229 -453 487 -921 515 -931 7 -3 11 -13 8 -22 -2 -9 8 -40 23 -67 14 -28
77 -145 140 -261 63 -116 114 -214 114 -217 0 -4 25 -52 56 -107 54 -96 58
-100 75 -84 15 13 16 20 8 31 -10 11 -8 12 6 6 15 -5 17 -3 12 11 -4 10 -3 15
3 11 10 -6 65 73 57 82 -3 2 8 17 23 32 16 15 32 40 36 56 4 16 15 37 24 47
42 46 154 298 222 503 39 119 94 392 109 540 11 113 8 358 -6 465 -30 232 -64
370 -146 592 -56 152 -116 282 -165 360 l-25 39 20 25 c17 21 18 30 10 48 -7
13 -7 17 -1 11 19 -19 133 -232 177 -334 98 -221 165 -462 200 -719 24 -172
17 -508 -14 -672 -77 -409 -188 -692 -399 -1015 -131 -200 -133 -204 -117
-234 21 -42 105 -115 168 -145 47 -24 73 -29 145 -32 48 -1 100 -7 115 -13 16
-6 58 -10 95 -9 42 1 54 3 32 6 l-35 4 45 14 c62 19 260 15 285 -6 17 -14 16
-15 -16 -21 l-34 -6 40 -2 c22 0 51 -8 63 -17 19 -13 22 -24 22 -83 0 -84 -19
-372 -29 -426 -8 -47 -3 -46 -176 -26 -81 10 -320 13 -903 13 -436 -1 -802 -4
-813 -7 -43 -14 -66 2 -85 57 -24 76 -48 106 -97 119 -31 9 -312 13 -1092 13
-1006 1 -1052 2 -1100 20 -95 36 -192 117 -233 194 -57 107 -60 166 -11 193
18 9 25 9 33 -2 6 -8 43 -23 81 -34 67 -19 107 -20 938 -23 598 -2 867 0 862
8 -4 6 5 10 22 10 22 0 25 -2 13 -11 -11 -7 50 -9 210 -6 248 6 294 15 339 73
28 36 26 45 -54 214 -35 74 -109 243 -165 375 -56 132 -132 310 -170 395 -122
275 -227 523 -491 1157 -121 293 -208 517 -376 973 -25 69 -50 136 -55 149 -8
21 -11 22 -22 10 -15 -15 -89 -185 -174 -399 -157 -393 -425 -979 -795 -1738
-264 -539 -366 -739 -585 -1142 -26 -47 -80 -110 -194 -227 -87 -89 -158 -166
-158 -172 0 -25 21 -60 54 -92 20 -18 36 -36 36 -40 0 -4 -24 -16 -52 -28 -72
-28 -210 -37 -498 -31 l-235 5 4 145 c2 92 8 148 15 152 6 4 29 8 51 8 80 0
232 29 300 57 221 90 284 235 165 379 -35 43 -38 49 -22 58 9 5 18 10 19 10 1
1 9 19 18 40 15 36 15 37 -5 26 -26 -14 -28 -13 -98 74 -128 159 -216 313
-306 534 -150 366 -215 717 -203 1097 6 204 26 323 86 535 58 201 186 496 203
466 5 -9 18 -13 33 -10 l25 4 -35 -69 c-42 -84 -87 -201 -77 -201 4 0 2 -4 -4
-8 -14 -9 -59 -140 -94 -279 -34 -131 -70 -362 -70 -450 l0 -63 -30 0 c-16 0
-30 -4 -30 -10 0 -5 4 -10 8 -10 19 0 43 -27 48 -55 3 -16 7 -31 8 -33 2 -1
149 -7 327 -13 178 -6 351 -14 384 -19 55 -8 53 -9 -25 -4 -173 10 -673 23
-681 18 -12 -7 0 -148 13 -153 6 -2 5 -7 -3 -12 -9 -6 -10 -12 -4 -16 6 -5 10
-17 10 -28 0 -18 6 -20 65 -17 36 2 97 8 135 13 39 5 185 11 325 14 140 3 272
7 293 9 20 2 37 1 37 -4 0 -4 -89 -11 -197 -14 -267 -10 -545 -24 -605 -32
-49 -7 -66 -23 -25 -25 l22 -2 -23 -4 c-20 -4 -22 -9 -16 -36 3 -18 9 -36 12
-42 3 -5 7 -16 7 -25 5 -45 18 -100 24 -100 5 0 6 -11 3 -25 -2 -14 0 -25 7
-25 5 0 8 -7 5 -15 -4 -10 0 -15 12 -15 13 0 15 -3 7 -8 -7 -4 -10 -17 -6 -30
4 -17 11 -21 32 -17 26 5 26 5 -2 -6 -21 -8 -26 -15 -21 -28 4 -9 15 -41 25
-71 10 -30 23 -63 29 -73 6 -10 8 -22 5 -27 -3 -5 2 -13 11 -18 11 -6 13 -11
5 -16 -7 -5 -5 -13 8 -27 10 -11 23 -37 30 -59 13 -45 25 -48 79 -21 54 27
112 51 112 45 0 -3 -38 -23 -85 -44 -80 -37 -85 -41 -73 -60 7 -11 16 -20 21
-20 4 0 6 -4 2 -9 -7 -12 15 -61 27 -61 5 0 23 7 41 15 18 8 23 10 13 3 -11
-7 -28 -21 -38 -31 -19 -18 -19 -19 3 -55 13 -20 38 -56 57 -79 19 -24 32 -49
29 -57 -4 -11 -1 -13 10 -9 12 5 15 2 10 -10 -4 -11 -1 -17 7 -17 8 0 17 -7
20 -16 3 -9 13 -14 21 -11 9 4 12 1 8 -9 -3 -8 3 -22 14 -32 11 -9 28 -29 38
-45 13 -21 21 -25 31 -16 16 13 659 1296 799 1594 163 349 269 581 388 850 60
138 136 309 167 380 32 72 114 245 183 385 69 140 169 356 222 480 152 353
137 332 268 341 129 8 268 8 367 1z m307 -389 c-3 -10 -5 -4 -5 12 0 17 2 24
5 18 2 -7 2 -21 0 -30z m-10 -70 c-3 -10 -5 -2 -5 17 0 19 2 27 5 18 2 -10 2
-26 0 -35z m1053 17 c-6 -11 -13 -20 -16 -20 -2 0 0 9 6 20 6 11 13 20 16 20
2 0 0 -9 -6 -20z m-26 -42 c-4 -7 -19 -31 -33 -53 -13 -22 -56 -98 -94 -170
-72 -136 -287 -527 -293 -534 -2 -2 -7 -1 -11 2 -7 8 16 53 120 232 38 66 105
184 148 262 81 147 157 273 165 273 3 0 2 -6 -2 -12z m-2996 -203 c-3 -3 -9 2
-12 12 -6 14 -5 15 5 6 7 -7 10 -15 7 -18z m26 -41 c3 -8 2 -12 -4 -9 -6 3
-10 10 -10 16 0 14 7 11 14 -7z m236 -79 c0 -5 -5 -3 -10 5 -5 8 -10 20 -10
25 0 6 5 3 10 -5 5 -8 10 -19 10 -25z m2624 -7 c-9 -17 -34 -61 -56 -97 -39
-63 -106 -181 -175 -306 -18 -33 -33 -54 -33 -46 0 7 26 58 58 113 152 263
214 368 218 368 3 0 -3 -14 -12 -32z m-2596 -49 c11 -23 18 -48 15 -57 -5 -11
-3 -13 7 -7 9 5 11 4 6 -4 -4 -6 2 -27 14 -47 12 -19 20 -37 17 -40 -2 -3 -15
14 -27 38 -12 24 -31 58 -43 77 -12 20 -15 31 -7 26 10 -6 12 -4 7 8 -4 10
-10 24 -13 32 -13 32 5 13 24 -26z m3038 -88 c-42 -48 -108 -116 -147 -151
-38 -34 -68 -65 -65 -68 3 -3 16 3 28 14 12 10 -9 -17 -48 -61 -38 -44 -82
-97 -98 -117 -15 -21 -33 -36 -39 -35 -6 1 -11 -5 -12 -13 0 -8 -8 -26 -17
-39 -14 -19 -19 -21 -31 -10 -12 11 -3 26 56 99 106 130 259 300 267 295 4 -2
44 36 89 85 45 50 85 90 87 90 3 0 -29 -40 -70 -89z m-2847 -15 c-1 -15 -28
46 -28 64 0 8 6 0 14 -19 8 -18 15 -38 14 -45z m35 -15 c-7 -7 -12 3 -19 34
l-6 30 14 -30 c8 -16 13 -32 11 -34z m-364 29 c6 -11 8 -20 6 -20 -3 0 -10 9
-16 20 -6 11 -8 20 -6 20 3 0 10 -9 16 -20z m49 -74 c-2 -2 -13 8 -23 22 l-19
27 24 -22 c12 -12 21 -24 18 -27z m-23 -107 c47 -72 83 -133 80 -136 -2 -2
-38 46 -79 109 -79 121 -101 158 -92 158 3 0 44 -59 91 -131z m1991 109 c-3
-8 -6 -5 -6 6 -1 11 2 17 5 13 3 -3 4 -12 1 -19z m-2100 -153 c26 -38 64 -95
85 -125 31 -43 33 -47 8 -20 -17 19 -52 67 -77 105 -26 39 -66 97 -91 130 -40
55 -40 56 -7 20 20 -22 57 -71 82 -110z m302 115 c11 -24 11 -24 -3 -6 -9 11
-16 24 -16 30 0 12 5 7 19 -24z m-658 3 c13 -16 12 -17 -3 -4 -10 7 -18 15
-18 17 0 8 8 3 21 -13z m567 -60 c23 -42 41 -78 39 -80 -2 -2 -25 33 -49 77
-25 44 -43 80 -39 80 3 0 25 -35 49 -77z m2607 -32 c-77 -99 -108 -133 -63
-68 42 61 133 175 137 172 1 -2 -32 -49 -74 -104z m-3105 14 l45 -50 -47 45
c-27 24 -48 48 -48 54 0 5 1 7 3 5 1 -2 22 -27 47 -54z m630 1 c0 -5 -7 -1
-15 10 -8 10 -14 24 -14 29 0 6 6 1 14 -9 8 -11 15 -24 15 -30z m-166 18 c3
-8 2 -12 -4 -9 -6 3 -10 10 -10 16 0 14 7 11 14 -7z m2192 -46 c-9 -12 -16
-19 -16 -15 0 11 24 47 28 42 2 -2 -3 -14 -12 -27z m29 -8 c-9 -16 -18 -30
-21 -30 -2 0 2 14 11 30 9 17 18 30 21 30 2 0 -2 -13 -11 -30z m25 -10 c-6
-11 -13 -20 -16 -20 -2 0 0 9 6 20 6 11 13 20 16 20 2 0 0 -9 -6 -20z m22 -22
c-7 -7 -12 -8 -12 -2 0 14 12 26 19 19 2 -3 -1 -11 -7 -17z m-2530 -150 c33
-38 58 -68 55 -68 -2 0 -53 53 -113 118 -59 64 -84 95 -55 67 29 -27 80 -80
113 -117z m2561 147 c-3 -9 -8 -14 -10 -11 -3 3 -2 9 2 15 9 16 15 13 8 -4z
m1342 -54 c3 -5 2 -12 -3 -15 -5 -3 -9 1 -9 9 0 17 3 19 12 6z m-4115 -189 c0
-6 -54 39 -112 95 -89 84 -69 74 27 -13 47 -43 85 -80 85 -82z m2970 138 c-6
-11 -13 -20 -16 -20 -2 0 0 9 6 20 6 11 13 20 16 20 2 0 0 -9 -6 -20z m-30 6
c0 -3 -4 -8 -10 -11 -5 -3 -10 -1 -10 4 0 6 5 11 10 11 6 0 10 -2 10 -4z m910
-20 c0 -2 -46 -41 -102 -87 -102 -83 -130 -110 -122 -118 2 -3 21 11 42 30 39
38 138 113 112 87 -41 -43 -160 -138 -160 -128 0 6 -5 8 -10 5 -6 -4 -7 -11
-4 -17 4 -6 2 -8 -3 -5 -6 4 -57 -29 -113 -73 -56 -44 -104 -80 -106 -80 -11
0 2 12 65 59 39 28 112 91 163 139 52 48 107 97 123 109 17 12 48 35 70 52 42
31 45 33 45 27z m-880 -37 c-7 -11 -14 -18 -17 -15 -3 3 0 12 7 21 18 21 23
19 10 -6z m23 -54 c-10 -13 -22 -25 -27 -25 -5 0 1 11 14 25 30 32 36 32 13 0z
m707 4 c-14 -11 -38 -31 -54 -45 -32 -28 -66 -48 -66 -39 0 6 132 105 140 105
3 -1 -6 -10 -20 -21z m-3330 1 c0 -5 -2 -10 -4 -10 -3 0 -8 5 -11 10 -3 6 -1
10 4 10 6 0 11 -4 11 -10z m2650 -19 c-11 -21 -30 -37 -30 -25 0 8 30 44 37
44 2 0 -1 -9 -7 -19z m28 -21 c-7 -10 -14 -17 -17 -15 -4 4 18 35 25 35 2 0
-1 -9 -8 -20z m262 -25 c-24 -25 -46 -45 -49 -45 -3 0 15 20 39 45 24 25 46
45 49 45 3 0 -15 -20 -39 -45z m-3855 -101 c55 -35 142 -89 193 -121 52 -32
129 -80 172 -108 44 -27 93 -58 111 -68 17 -10 29 -20 26 -23 -3 -3 -38 15
-79 40 -40 25 -125 76 -188 114 -156 93 -453 281 -465 294 -15 17 118 -58 230
-128z m651 55 c3 -6 -17 6 -45 26 -28 20 -51 39 -51 41 0 7 88 -55 96 -67z
m2962 51 c-7 -10 -14 -17 -17 -15 -4 4 18 35 25 35 2 0 -1 -9 -8 -20z m33 -8
c-5 -10 -18 -25 -27 -33 -16 -12 -17 -12 -9 1 10 18 37 50 42 50 2 0 -1 -8 -6
-18z m5 -40 c-18 -16 -18 -16 -6 6 6 13 14 21 18 18 3 -4 -2 -14 -12 -24z m44
5 c0 -2 -10 -12 -22 -23 l-23 -19 19 23 c18 21 26 27 26 19z m-2999 -44 c13
-16 12 -17 -3 -4 -10 7 -18 15 -18 17 0 8 8 3 21 -13z m3004 -3 c-10 -11 -23
-20 -28 -20 -6 0 -2 9 8 20 10 11 23 20 28 20 6 0 2 -9 -8 -20z m-3156 -134
c37 -22 69 -40 74 -38 13 4 7 -15 -8 -28 -13 -11 -15 -10 -11 1 4 9 -23 33
-77 67 -45 29 -104 73 -132 98 l-50 45 69 -52 c39 -28 99 -70 135 -93z m3181
119 c-7 -9 -15 -13 -19 -10 -3 3 1 10 9 15 21 14 24 12 10 -5z m703 -18 c-67
-56 -439 -284 -448 -275 -3 2 24 21 58 41 34 20 139 86 232 146 165 107 216
136 158 88z m-303 9 c0 -2 -8 -10 -17 -17 -16 -13 -17 -12 -4 4 13 16 21 21
21 13z m-3380 -16 c0 -5 -2 -10 -4 -10 -3 0 -8 5 -11 10 -3 6 -1 10 4 10 6 0
11 -4 11 -10z m3305 -47 c-42 -37 -139 -103 -152 -103 -4 0 19 18 52 39 33 22
76 53 95 70 49 42 53 38 5 -6z m-3540 7 c10 -11 16 -20 13 -20 -3 0 -13 9 -23
20 -10 11 -16 20 -13 20 3 0 13 -9 23 -20z m-185 -26 c0 -2 -9 0 -20 6 -11 6
-20 13 -20 16 0 2 9 0 20 -6 11 -6 20 -13 20 -16z m380 16 c0 -5 -5 -10 -11
-10 -5 0 -7 5 -4 10 3 6 8 10 11 10 2 0 4 -4 4 -10z m-25 -30 c3 -5 1 -10 -4
-10 -6 0 -11 5 -11 10 0 6 2 10 4 10 3 0 8 -4 11 -10z m3215 -5 c-7 -8 -18
-15 -24 -15 -6 0 -2 7 8 15 25 19 32 19 16 0z m-4110 -5 c8 -5 11 -10 5 -10
-5 0 -17 5 -25 10 -8 5 -10 10 -5 10 6 0 17 -5 25 -10z m70 -30 c8 -5 11 -10
5 -10 -5 0 -17 5 -25 10 -8 5 -10 10 -5 10 6 0 17 -5 25 -10z m4060 6 c0 -2
-7 -7 -16 -10 -8 -3 -12 -2 -9 4 6 10 25 14 25 6z m-3990 -36 c8 -5 11 -10 5
-10 -5 0 -17 5 -25 10 -8 5 -10 10 -5 10 6 0 17 -5 25 -10z m531 -7 c13 -16
12 -17 -3 -4 -10 7 -18 15 -18 17 0 8 8 3 21 -13z m3399 12 c0 -2 -10 -10 -22
-16 -21 -11 -22 -11 -9 4 13 16 31 23 31 12z m160 0 c0 -2 -10 -9 -22 -15 -22
-11 -22 -10 -4 4 21 17 26 19 26 11z m540 1 c0 -3 -25 -19 -56 -38 -31 -18
-73 -43 -93 -55 -20 -12 -40 -22 -46 -22 -5 -1 35 26 90 59 104 62 105 63 105
56z m-4570 -31 c14 -8 21 -14 15 -14 -5 0 -21 6 -35 14 -14 8 -20 14 -15 14 6
0 21 -6 35 -14z m3890 11 c0 -2 -8 -10 -17 -17 -16 -13 -17 -12 -4 4 13 16 21
21 21 13z m-3379 -23 c13 -16 12 -17 -3 -4 -10 7 -18 15 -18 17 0 8 8 3 21
-13z m3469 12 c0 -2 -10 -9 -22 -15 -22 -11 -22 -10 -4 4 21 17 26 19 26 11z
m-3410 -53 c-7 -3 -19 3 -28 13 -16 15 -15 16 12 4 15 -7 23 -15 16 -17z
m3360 24 c0 -2 -7 -7 -16 -10 -8 -3 -12 -2 -9 4 6 10 25 14 25 6z m-4230 -16
c8 -5 11 -10 5 -10 -5 0 -17 5 -25 10 -8 5 -10 10 -5 10 6 0 17 -5 25 -10z
m4650 -24 c0 -2 -7 -7 -16 -10 -8 -3 -12 -2 -9 4 6 10 25 14 25 6z m-4503 -32
c-3 -3 -12 -4 -19 -1 -8 3 -5 6 6 6 11 1 17 -2 13 -5z m4133 -4 c0 -5 -2 -10
-4 -10 -3 0 -8 5 -11 10 -3 6 -1 10 4 10 6 0 11 -4 11 -10z m250 -20 c-30 -16
-61 -29 -69 -30 -18 0 88 57 109 59 8 0 -10 -12 -40 -29z m-3725 -20 c3 -6 -1
-7 -9 -4 -18 7 -21 14 -7 14 6 0 13 -4 16 -10z m-395 -32 c10 -6 7 -7 -10 -2
-14 3 -32 11 -40 16 -10 6 -7 7 10 2 14 -3 32 -11 40 -16z m80 -30 c10 -6 7
-7 -10 -2 -14 3 -32 11 -40 16 -10 6 -7 7 10 2 14 -3 32 -11 40 -16z m-275
-18 c13 -6 15 -9 5 -9 -8 0 -22 4 -30 9 -18 12 -2 12 25 0z m345 -10 c8 -5 11
-10 5 -10 -5 0 -17 5 -25 10 -8 5 -10 10 -5 10 6 0 17 -5 25 -10z m86 -29 c27
-11 58 -22 68 -25 10 -4 17 -9 14 -12 -5 -4 -137 41 -147 51 -10 10 19 4 65
-14z m-401 -1 c13 -6 15 -9 5 -9 -8 0 -22 4 -30 9 -18 12 -2 12 25 0z m82 4
c-3 -3 -12 -4 -19 -1 -8 3 -5 6 6 6 11 1 17 -2 13 -5z m25 -35 c39 -11 68 -22
66 -24 -2 -3 -38 6 -79 19 -92 30 -82 34 13 5z m-305 5 c-3 -3 -12 -4 -19 -1
-8 3 -5 6 6 6 11 1 17 -2 13 -5z m4828 -29 c-54 -18 -91 -18 -45 0 19 7 46 13
60 13 19 0 16 -3 -15 -13z m-4828 -1 c-3 -3 -12 -4 -19 -1 -8 3 -5 6 6 6 11 1
17 -2 13 -5z m588 -4 c13 -6 15 -9 5 -9 -8 0 -22 4 -30 9 -18 12 -2 12 25 0z
m152 4 c-3 -3 -12 -4 -19 -1 -8 3 -5 6 6 6 11 1 17 -2 13 -5z m-700 -10 c-3
-3 -12 -4 -19 -1 -8 3 -5 6 6 6 11 1 17 -2 13 -5z m430 -20 c-3 -3 -12 -4 -19
-1 -8 3 -5 6 6 6 11 1 17 -2 13 -5z m195 -26 c-9 -9 -12 -7 -12 12 0 19 3 21
12 12 9 -9 9 -15 0 -24z m-155 16 c-3 -3 -12 -4 -19 -1 -8 3 -5 6 6 6 11 1 17
-2 13 -5z m88 -24 c13 -6 15 -9 5 -9 -8 0 -22 4 -30 9 -18 12 -2 12 25 0z
m4290 0 c-11 -5 -31 -8 -45 -8 l-25 0 25 8 c14 4 34 8 45 8 l20 1 -20 -9z
m-4928 -6 c-3 -3 -12 -4 -19 -1 -8 3 -5 6 6 6 11 1 17 -2 13 -5z m100 0 c-3
-3 -12 -4 -19 -1 -8 3 -5 6 6 6 11 1 17 -2 13 -5z m136 -1 c-7 -2 -19 -2 -25
0 -7 3 -2 5 12 5 14 0 19 -2 13 -5z m144 1 c-3 -3 -12 -4 -19 -1 -8 3 -5 6 6
6 11 1 17 -2 13 -5z m323 -14 c0 -5 -7 -7 -15 -4 -8 4 -15 8 -15 10 0 2 7 4
15 4 8 0 15 -4 15 -10z m37 -6 c-3 -3 -12 -4 -19 -1 -8 3 -5 6 6 6 11 1 17 -2
13 -5z m4030 -10 c-3 -3 -12 -4 -19 -1 -8 3 -5 6 6 6 11 1 17 -2 13 -5z
m-4534 -31 c-7 -2 -19 -2 -25 0 -7 3 -2 5 12 5 14 0 19 -2 13 -5z m4414 1 c-3
-3 -12 -4 -19 -1 -8 3 -5 6 6 6 11 1 17 -2 13 -5z m-3934 -21 c-7 -2 -19 -2
-25 0 -7 3 -2 5 12 5 14 0 19 -2 13 -5z m-676 -9 c-3 -3 -12 -4 -19 -1 -8 3
-5 6 6 6 11 1 17 -2 13 -5z m4387 -20 c3 -8 2 -12 -4 -9 -6 3 -10 10 -10 16 0
14 7 11 14 -7z m-3987 -10 c-3 -3 -12 -4 -19 -1 -8 3 -5 6 6 6 11 1 17 -2 13
-5z m4180 0 c-3 -3 -12 -4 -19 -1 -8 3 -5 6 6 6 11 1 17 -2 13 -5z m-4134 -11
c-7 -2 -19 -2 -25 0 -7 3 -2 5 12 5 14 0 19 -2 13 -5z m127 -24 c16 -6 10 -7
-20 -3 -25 4 -54 10 -65 15 -24 10 48 0 85 -12z m4307 15 c-3 -3 -12 -4 -19
-1 -8 3 -5 6 6 6 11 1 17 -2 13 -5z m-57 -14 c-14 -4 -34 -8 -45 -8 -16 0 -15
2 5 8 14 4 34 8 45 8 16 0 15 -2 -5 -8z m-4163 -16 c-3 -3 -12 -4 -19 -1 -8 3
-5 6 6 6 11 1 17 -2 13 -5z m4048 -10 c-27 -7 -59 -13 -70 -13 -24 2 71 27
100 27 11 0 -2 -6 -30 -14z m-4118 -10 c-3 -3 -12 -4 -19 -1 -8 3 -5 6 6 6 11
1 17 -2 13 -5z m4020 -10 c-3 -3 -12 -4 -19 -1 -8 3 -5 6 6 6 11 1 17 -2 13
-5z m-4609 -11 c-10 -2 -26 -2 -35 0 -10 3 -2 5 17 5 19 0 27 -2 18 -5z m659
1 c-3 -3 -12 -4 -19 -1 -8 3 -5 6 6 6 11 1 17 -2 13 -5z m-589 -11 c-10 -2
-26 -2 -35 0 -10 3 -2 5 17 5 19 0 27 -2 18 -5z m4875 0 c-7 -2 -19 -2 -25 0
-7 3 -2 5 12 5 14 0 19 -2 13 -5z m-4710 -20 c-7 -2 -19 -2 -25 0 -7 3 -2 5
12 5 14 0 19 -2 13 -5z m75 -10 c-10 -2 -26 -2 -35 0 -10 3 -2 5 17 5 19 0 27
-2 18 -5z m55 -10 c-7 -2 -19 -2 -25 0 -7 3 -2 5 12 5 14 0 19 -2 13 -5z m277
-3 c0 -5 -2 -10 -4 -10 -3 0 -8 5 -11 10 -3 6 -1 10 4 10 6 0 11 -4 11 -10z
m3910 1 c-39 -12 -146 -24 -138 -16 11 12 69 23 118 23 36 0 40 -1 20 -7z
m290 -11 c-14 -4 -36 -8 -50 -8 -22 0 -22 1 5 8 17 4 39 8 50 8 16 0 15 -2 -5
-8z m-4343 -6 c-3 -3 -12 -4 -19 -1 -8 3 -5 6 6 6 11 1 17 -2 13 -5z m4186
-21 c-7 -2 -21 -2 -30 0 -10 3 -4 5 12 5 17 0 24 -2 18 -5z m-4366 -9 c-3 -3
-12 -4 -19 -1 -8 3 -5 6 6 6 11 1 17 -2 13 -5z m4256 -1 c-7 -2 -19 -2 -25 0
-7 3 -2 5 12 5 14 0 19 -2 13 -5z m-4246 -29 c-3 -3 -12 -4 -19 -1 -8 3 -5 6
6 6 11 1 17 -2 13 -5z m300 -20 c-3 -3 -12 -4 -19 -1 -8 3 -5 6 6 6 11 1 17
-2 13 -5z m-2 -34 c3 -5 -1 -10 -9 -10 -9 0 -16 5 -16 10 0 6 4 10 9 10 6 0
13 -4 16 -10z m3778 3 c-7 -2 -19 -2 -25 0 -7 3 -2 5 12 5 14 0 19 -2 13 -5z
m-3830 -30 c-7 -2 -21 -2 -30 0 -10 3 -4 5 12 5 17 0 24 -2 18 -5z m3834 1
c-3 -3 -12 -4 -19 -1 -8 3 -5 6 6 6 11 1 17 -2 13 -5z m-3784 -11 c-7 -2 -19
-2 -25 0 -7 3 -2 5 12 5 14 0 19 -2 13 -5z m-340 -10 c-24 -2 -62 -2 -85 0
-24 2 -5 4 42 4 47 0 66 -2 43 -4z m4265 0 c-10 -2 -26 -2 -35 0 -10 3 -2 5
17 5 19 0 27 -2 18 -5z m-4060 -10 c-15 -2 -42 -2 -60 0 -18 2 -6 4 27 4 33 0
48 -2 33 -4z m4547 -20 c-368 -23 -588 -34 -592 -30 -13 13 293 34 492 34 83
0 128 -2 100 -4z m-4927 -60 c-15 -2 -42 -2 -60 0 -18 2 -6 4 27 4 33 0 48 -2
33 -4z m385 0 c-23 -2 -64 -2 -90 0 -26 2 -7 3 42 3 50 0 71 -1 48 -3z m110
-10 c-13 -2 -33 -2 -45 0 -13 2 -3 4 22 4 25 0 35 -2 23 -4z m3935 -10 c-10
-2 -26 -2 -35 0 -10 3 -2 5 17 5 19 0 27 -2 18 -5z m269 -70 c-20 -2 -52 -2
-70 0 -17 2 0 4 38 4 39 0 53 -2 32 -4z m291 -10 c-43 -2 -113 -2 -155 0 -43
1 -8 3 77 3 85 0 120 -2 78 -3z m-4610 -19 c-3 -3 -70 -14 -149 -24 -79 -11
-198 -28 -264 -39 -137 -22 -291 -36 -235 -21 19 5 94 15 165 24 72 8 138 18
147 21 9 4 83 15 165 25 178 21 178 21 171 14z m4205 -11 c-7 -2 -21 -2 -30 0
-10 3 -4 5 12 5 17 0 24 -2 18 -5z m-4095 -90 c-10 -2 -26 -2 -35 0 -10 3 -2
5 17 5 19 0 27 -2 18 -5z m-70 -10 c-10 -2 -28 -2 -40 0 -13 2 -5 4 17 4 22 1
32 -1 23 -4z m-75 -10 c-7 -2 -21 -2 -30 0 -10 3 -4 5 12 5 17 0 24 -2 18 -5z
m197 -3 c0 -5 -7 -10 -15 -10 -8 0 -15 5 -15 10 0 6 7 10 15 10 8 0 15 -4 15
-10z m-287 -7 c-18 -2 -48 -2 -65 0 -18 2 -4 4 32 4 36 0 50 -2 33 -4z m4054
1 c-3 -3 -12 -4 -19 -1 -8 3 -5 6 6 6 11 1 17 -2 13 -5z m-4207 -20 c-30 -8
-109 -23 -175 -34 -66 -10 -136 -21 -155 -25 -92 -14 4 9 160 39 181 35 266
45 170 20z m313 9 c-7 -2 -21 -2 -30 0 -10 3 -4 5 12 5 17 0 24 -2 18 -5z
m4100 0 c-7 -2 -21 -2 -30 0 -10 3 -4 5 12 5 17 0 24 -2 18 -5z m-4078 -24
c-22 -4 -58 -7 -80 -7 -39 1 -38 1 10 8 28 4 64 7 80 7 25 1 23 -1 -10 -8z
m-147 -16 c-10 -2 -28 -2 -40 0 -13 2 -5 4 17 4 22 1 32 -1 23 -4z m-125 -10
c-7 -2 -21 -2 -30 0 -10 3 -4 5 12 5 17 0 24 -2 18 -5z m4275 0 c-10 -2 -28
-2 -40 0 -13 2 -5 4 17 4 22 1 32 -1 23 -4z m-4355 -10 c-7 -2 -21 -2 -30 0
-10 3 -4 5 12 5 17 0 24 -2 18 -5z m262 -4 c-22 -4 -51 -8 -65 -7 -23 0 -22 1
5 8 17 4 46 8 65 8 l35 0 -40 -9z m4283 4 c-32 -2 -84 -2 -115 0 -32 2 -6 3
57 3 63 0 89 -1 58 -3z m-4415 -10 c-7 -2 -21 -2 -30 0 -10 3 -4 5 12 5 17 0
24 -2 18 -5z m4570 0 c-7 -2 -19 -2 -25 0 -7 3 -2 5 12 5 14 0 19 -2 13 -5z
m-4670 -10 c-7 -2 -19 -2 -25 0 -7 3 -2 5 12 5 14 0 19 -2 13 -5z m-118 -19
c-38 -7 -79 -13 -90 -12 -33 1 87 26 125 26 22 0 10 -5 -35 -14z m285 6 c14
-4 18 -9 10 -9 -8 -1 -26 -4 -40 -6 -22 -5 -23 -4 -5 5 16 8 14 9 -15 5 -150
-20 -211 -26 -222 -23 -13 5 178 35 222 36 14 0 36 -4 50 -8z m63 3 c-7 -2
-19 -2 -25 0 -7 3 -2 5 12 5 14 0 19 -2 13 -5z m-566 -29 c-3 -3 -12 -4 -19
-1 -8 3 -5 6 6 6 11 1 17 -2 13 -5z m323 -20 c-145 -28 -285 -47 -303 -41 -6
2 67 16 163 31 96 15 182 29 190 30 8 2 29 4 45 4 17 0 -26 -11 -95 -24z m457
20 c-3 -3 -12 -4 -19 -1 -8 3 -5 6 6 6 11 1 17 -2 13 -5z m3811 -1 c-10 -2
-26 -2 -35 0 -10 3 -2 5 17 5 19 0 27 -2 18 -5z m55 -10 c-7 -2 -19 -2 -25 0
-7 3 -2 5 12 5 14 0 19 -2 13 -5z m372 -39 c207 -24 266 -34 200 -34 -33 0
-421 46 -505 59 -54 9 -54 9 15 5 39 -3 169 -17 290 -30z m-4618 -10 c-3 -3
-12 -4 -19 -1 -8 3 -5 6 6 6 11 1 17 -2 13 -5z m4196 -1 c-7 -2 -19 -2 -25 0
-7 3 -2 5 12 5 14 0 19 -2 13 -5z m-4240 -10 c-7 -2 -19 -2 -25 0 -7 3 -2 5
12 5 14 0 19 -2 13 -5z m4290 0 c-7 -2 -19 -2 -25 0 -7 3 -2 5 12 5 14 0 19
-2 13 -5z m-4346 -9 c-3 -3 -12 -4 -19 -1 -8 3 -5 6 6 6 11 1 17 -2 13 -5z
m4565 -25 c244 -42 317 -57 293 -58 -22 -1 -409 64 -465 78 -69 18 -7 10 172
-20z m101 4 c-7 -2 -21 -2 -30 0 -10 3 -4 5 12 5 17 0 24 -2 18 -5z m-4696 -9
c-3 -3 -12 -4 -19 -1 -8 3 -5 6 6 6 11 1 17 -2 13 -5z m4756 -1 c-7 -2 -19 -2
-25 0 -7 3 -2 5 12 5 14 0 19 -2 13 -5z m-4863 -23 c-34 -11 -60 -11 -35 0 11
5 29 8 40 8 16 0 15 -2 -5 -8z m4993 3 c-7 -2 -21 -2 -30 0 -10 3 -4 5 12 5
17 0 24 -2 18 -5z m-5068 -23 c-11 -5 -27 -9 -35 -9 -9 0 -8 4 5 9 11 5 27 9
35 9 9 0 8 -4 -5 -9z m345 -40 c-8 -5 -22 -10 -30 -10 -13 0 -13 1 0 10 8 5
22 10 30 10 13 0 13 -1 0 -10z m-60 -19 c-8 -5 -26 -11 -40 -15 -21 -5 -20 -3
5 9 32 15 60 20 35 6z m-70 -25 c0 -2 -9 -6 -20 -9 -11 -3 -18 -1 -14 4 5 9
34 13 34 5z m-53 -12 c-3 -3 -12 -4 -19 -1 -8 3 -5 6 6 6 11 1 17 -2 13 -5z
m-40 -10 c-3 -3 -12 -4 -19 -1 -8 3 -5 6 6 6 11 1 17 -2 13 -5z m-77 -24 c-8
-5 -19 -10 -25 -10 -5 0 -3 5 5 10 8 5 20 10 25 10 6 0 3 -5 -5 -10z m4975 0
c13 -5 14 -9 5 -9 -8 0 -24 4 -35 9 -13 5 -14 9 -5 9 8 0 24 -4 35 -9z m-4590
-100 c-3 -5 -12 -10 -18 -10 -7 0 -6 4 3 10 19 12 23 12 15 0z m-49 -25 c-11
-8 -25 -15 -30 -15 -6 1 0 7 14 15 32 19 40 18 16 0z m4424 -5 c8 -5 11 -10 5
-10 -5 0 -17 5 -25 10 -8 5 -10 10 -5 10 6 0 17 -5 25 -10z m-4550 -24 c0 -2
-7 -7 -16 -10 -8 -3 -12 -2 -9 4 6 10 25 14 25 6z m120 -6 c-8 -5 -19 -10 -25
-10 -5 0 -3 5 5 10 8 5 20 10 25 10 6 0 3 -5 -5 -10z m4550 -20 c8 -5 11 -10
5 -10 -5 0 -17 5 -25 10 -8 5 -10 10 -5 10 6 0 17 -5 25 -10z m-4775 -10 c-3
-5 -12 -10 -18 -10 -7 0 -6 4 3 10 19 12 23 12 15 0z m155 6 c0 -2 -7 -7 -16
-10 -8 -3 -12 -2 -9 4 6 10 25 14 25 6z m-210 -30 c0 -2 -7 -7 -16 -10 -8 -3
-12 -2 -9 4 6 10 25 14 25 6z m150 -1 c0 -2 -10 -9 -22 -15 -22 -11 -22 -10
-4 4 21 17 26 19 26 11z m-50 -30 c0 -2 -10 -9 -22 -15 -22 -11 -22 -10 -4 4
21 17 26 19 26 11z m4576 -11 c18 -14 18 -14 -6 -3 -31 14 -36 19 -24 19 6 0
19 -7 30 -16z m59 -32 c-3 -3 -11 0 -18 7 -9 10 -8 11 6 5 10 -3 15 -9 12 -12z
m-4853 -517 c5 -24 5 -24 -23 -8 -30 18 -30 33 0 33 12 0 20 -9 23 -25z m1346
-21 c34 -10 26 -21 -18 -29 -41 -7 -76 7 -64 26 6 10 48 12 82 3z m1676 -216
c-3 -4 -121 -7 -262 -7 -141 1 -241 4 -222 8 52 9 490 8 484 -1z m-1406 -513
c-6 -14 -13 -23 -15 -21 -5 5 15 46 22 46 3 0 -1 -11 -7 -25z m1692 -10 c0 -5
-5 -3 -10 5 -5 8 -10 20 -10 25 0 6 5 3 10 -5 5 -8 10 -19 10 -25z m28 10 c-3
-3 -9 2 -12 12 -6 14 -5 15 5 6 7 -7 10 -15 7 -18z m-121 -37 c-3 -8 -6 -5 -6
6 -1 11 2 17 5 13 3 -3 4 -12 1 -19z m37 6 c3 -8 2 -12 -4 -9 -6 3 -10 10 -10
16 0 14 7 11 14 -7z m-1471 -9 c-3 -9 -8 -14 -10 -11 -3 3 -2 9 2 15 9 16 15
13 8 -4z m154 -27 c-3 -7 -5 -2 -5 12 0 14 2 19 5 13 2 -7 2 -19 0 -25z m59 5
c-10 -10 -19 5 -10 18 6 11 8 11 12 0 2 -7 1 -15 -2 -18z m1151 5 c-3 -8 -6
-5 -6 6 -1 11 2 17 5 13 3 -3 4 -12 1 -19z m-1120 -10 c-3 -8 -6 -5 -6 6 -1
11 2 17 5 13 3 -3 4 -12 1 -19z m1060 0 c-3 -8 -6 -5 -6 6 -1 11 2 17 5 13 3
-3 4 -12 1 -19z m30 0 c-3 -8 -6 -5 -6 6 -1 11 2 17 5 13 3 -3 4 -12 1 -19z
m1648 13 c-6 -6 -73 -60 -150 -121 -397 -315 -762 -511 -1192 -639 -410 -122
-909 -157 -1363 -96 -464 63 -959 260 -1355 538 -135 95 -355 267 -355 277 0
11 26 20 60 20 19 0 53 -18 101 -54 40 -30 76 -53 81 -50 4 3 8 -1 8 -9 0 -28
32 -28 69 0 l36 27 -28 -33 -28 -34 23 -24 23 -25 30 38 c81 101 106 115 33
18 -39 -52 -44 -64 -29 -64 5 0 23 -13 41 -30 51 -48 70 -39 162 72 44 54 83
98 86 98 6 0 5 -1 -93 -124 -60 -76 -75 -100 -64 -107 8 -5 20 -7 26 -4 7 2
12 0 10 -5 -1 -5 11 -18 28 -28 l30 -18 100 142 c55 79 106 151 113 161 10 15
10 14 1 -7 -19 -38 -158 -252 -181 -277 -17 -19 -19 -25 -8 -38 19 -23 26 -19
64 38 20 28 47 66 62 82 l26 30 -23 -40 c-12 -22 -35 -56 -49 -75 -38 -50 -42
-58 -30 -65 5 -3 42 43 81 102 79 121 79 120 79 106 0 -6 -31 -57 -69 -114
-46 -68 -66 -106 -58 -111 7 -4 25 14 45 45 19 29 39 57 45 62 13 13 -32 -65
-51 -87 -8 -9 -12 -22 -10 -29 6 -17 45 37 108 149 29 50 55 92 57 92 5 0 -81
-166 -112 -217 -29 -48 -24 -55 14 -20 l24 22 -16 -25 c-19 -27 -21 -40 -8
-40 5 0 33 43 62 94 29 52 55 93 57 91 2 -2 -19 -47 -47 -99 -48 -88 -50 -96
-33 -105 16 -9 24 0 62 77 24 48 43 92 42 99 -1 6 2 14 7 18 6 3 30 48 55 100
25 52 47 95 50 95 5 0 -84 -217 -137 -331 l-35 -77 24 -11 c23 -10 26 -7 74
89 28 55 53 100 55 100 3 0 2 -8 -3 -17 -5 -10 -28 -56 -50 -103 l-41 -85 50
-19 c43 -16 52 -17 61 -5 7 10 7 7 3 -11 -15 -53 22 5 70 112 27 59 51 106 53
104 2 -3 -17 -56 -42 -119 -25 -63 -46 -118 -46 -121 0 -3 6 -6 13 -6 9 0 19
22 26 56 7 31 26 84 42 118 16 33 27 52 23 41 -64 -196 -75 -243 -55 -231 9 6
26 47 82 199 11 32 23 57 25 54 4 -4 -42 -143 -71 -215 -20 -49 -14 -67 9 -25
8 15 15 24 16 20 0 -5 -5 -17 -10 -27 -6 -12 -7 -21 0 -25 5 -3 18 14 29 37
11 24 20 37 21 30 0 -7 -7 -26 -15 -42 -16 -30 -11 -39 18 -35 9 2 17 -1 17
-6 0 -16 18 -9 23 9 4 13 5 11 6 -5 2 -45 28 -23 45 38 10 33 19 59 22 57 2
-3 -3 -27 -11 -54 -8 -27 -15 -56 -15 -64 1 -35 27 21 44 95 10 42 20 74 23
72 2 -3 -5 -42 -17 -87 -21 -82 -22 -128 -2 -80 l11 25 1 -25 c1 -18 6 -10 16
25 8 28 13 60 11 73 -3 12 -1 22 4 22 4 0 7 13 7 28 -1 15 4 43 10 62 6 19 18
70 27 113 10 43 19 76 21 74 3 -2 -2 -35 -10 -73 -8 -38 -20 -107 -26 -154 -6
-47 -17 -110 -25 -140 -14 -55 -12 -77 5 -50 8 12 10 11 11 -5 2 -30 17 21 18
62 1 18 9 51 18 74 14 35 18 39 24 23 3 -11 3 -37 -1 -59 l-8 -40 -2 35 -2 35
-9 -40 c-13 -64 -11 -115 5 -115 8 0 18 22 25 60 7 33 14 60 17 60 3 0 3 -13
0 -30 -3 -16 -9 -43 -12 -60 -3 -18 -1 -30 5 -30 6 0 11 12 12 28 1 15 5 38
10 52 5 16 6 4 2 -34 -4 -40 -2 -57 5 -52 6 3 13 2 16 -2 3 -5 21 -8 41 -7 19
1 35 -2 35 -7 0 -4 4 -8 8 -8 4 0 19 57 32 128 17 92 25 120 30 102 6 -22 8
-20 18 20 9 39 10 31 5 -55 -3 -55 -9 -122 -14 -149 -11 -59 -11 -56 0 -56 5
0 14 46 20 103 6 56 15 129 20 162 l8 60 3 -45 c2 -42 3 -43 10 -15 15 60 10
-11 -10 -128 -22 -132 -25 -160 -11 -138 6 9 11 10 15 2 4 -6 18 -11 30 -11
22 0 24 4 31 98 4 53 11 115 15 137 10 42 6 -50 -6 -182 -9 -88 11 -81 26 10
7 39 16 88 20 107 l8 35 1 -45 c0 -25 -4 -63 -10 -85 -23 -89 -23 -87 -3 -83
15 2 21 15 25 53 l7 50 0 -50 c0 -67 2 -74 12 -50 5 11 9 69 9 129 1 60 4 107
7 103 5 -5 6 -176 1 -221 -2 -15 5 -19 41 -21 32 -2 42 2 43 14 1 13 2 13 6
-1 8 -31 23 -19 25 20 l1 37 4 -37 c4 -40 18 -50 26 -20 3 9 6 78 7 152 1 74
3 137 6 139 2 2 4 -66 4 -152 0 -125 3 -157 14 -157 9 0 15 25 20 96 10 141
22 147 31 16 7 -106 18 -140 30 -89 3 12 6 83 8 157 l3 135 2 -157 c1 -97 6
-158 12 -158 6 0 10 6 10 13 0 8 3 7 10 -3 14 -23 19 1 23 110 l3 95 2 -106
c2 -106 2 -106 27 -106 16 0 25 5 26 16 0 12 2 12 8 -3 5 -12 10 -16 14 -9 4
6 16 9 27 6 19 -5 20 0 22 88 l2 94 3 -92 c3 -82 6 -92 22 -90 16 1 19 15 25
125 4 68 5 185 2 260 -3 93 -2 121 4 87 4 -27 9 -75 11 -105 l2 -55 7 45 c4
25 8 34 8 20 2 -22 14 -107 44 -300 15 -92 22 -71 10 28 -4 39 -5 69 -1 66 4
-2 10 -35 14 -72 7 -73 18 -102 29 -83 4 6 11 9 16 6 12 -7 140 16 140 26 0 4
9 5 20 2 25 -7 26 15 5 102 -8 33 -14 74 -14 90 1 17 9 -6 20 -55 34 -149 31
-140 39 -105 5 21 8 24 9 9 0 -11 4 -23 7 -27 6 -6 106 21 114 32 3 3 12 7 20
7 52 5 190 45 190 55 0 5 7 6 15 3 8 -4 15 -1 15 5 0 6 7 8 16 4 12 -4 14 0 8
23 -4 16 -15 45 -24 64 -34 69 -110 270 -110 292 0 13 -7 43 -16 67 -8 24 -13
45 -11 47 5 5 112 -275 141 -371 15 -49 29 -96 32 -102 4 -15 24 -17 24 -3 0
5 7 7 15 4 9 -4 18 2 24 17 5 13 10 18 10 12 1 -7 5 -13 11 -13 11 0 189 76
197 84 3 3 0 20 -6 38 -10 30 -9 31 4 14 8 -11 15 -26 15 -33 0 -15 9 -16 29
-4 12 8 11 18 -7 65 -26 70 -20 74 9 6 12 -27 23 -50 26 -50 29 0 436 249 494
302 14 13 36 28 49 34 14 7 57 38 95 69 39 31 79 60 90 65 28 12 122 12 110 1z
m287 -93 c-342 -358 -777 -646 -1267 -837 -787 -307 -1688 -314 -2472 -20
-365 137 -728 344 -992 568 -111 94 -249 272 -266 344 -7 26 -6 27 37 27 42 0
50 -5 139 -86 446 -407 967 -693 1507 -829 130 -32 360 -71 507 -86 151 -15
547 -6 703 16 704 98 1262 353 1822 833 70 60 110 87 155 102 33 12 83 32 110
45 28 13 64 24 82 24 31 1 30 -1 -65 -101z m-2995 70 c-3 -8 -6 -5 -6 6 -1 11
2 17 5 13 3 -3 4 -12 1 -19z m30 0 c-3 -8 -6 -5 -6 6 -1 11 2 17 5 13 3 -3 4
-12 1 -19z m1279 -43 c9 -39 0 -30 -15 15 -6 19 -7 30 -2 25 5 -6 13 -23 17
-40z m-1169 13 c-3 -8 -6 -5 -6 6 -1 11 2 17 5 13 3 -3 4 -12 1 -19z m43 7 c0
-8 -4 -15 -10 -15 -5 0 -10 7 -10 15 0 8 5 15 10 15 6 0 10 -7 10 -15z m40 -4
c0 -6 -4 -13 -10 -16 -5 -3 -10 1 -10 9 0 9 5 16 10 16 6 0 10 -4 10 -9z m30
-7 c0 -8 -5 -12 -10 -9 -6 4 -8 11 -5 16 9 14 15 11 15 -7z m823 -41 c7 -39 1
-40 -11 -4 -6 17 -7 31 -3 31 5 0 11 -12 14 -27z m-1700 2 c-3 -9 -8 -14 -10
-11 -3 3 -2 9 2 15 9 16 15 13 8 -4z m1524 -7 c-3 -8 -6 -5 -6 6 -1 11 2 17 5
13 3 -3 4 -12 1 -19z m213 -13 c0 -5 -5 -3 -10 5 -5 8 -10 20 -10 25 0 6 5 3
10 -5 5 -8 10 -19 10 -25z m-243 3 c-3 -8 -6 -5 -6 6 -1 11 2 17 5 13 3 -3 4
-12 1 -19z m-1707 -46 c0 -5 -7 -17 -15 -28 -14 -18 -14 -17 -4 9 12 27 19 34
19 19z m20 -22 c-6 -11 -13 -20 -16 -20 -2 0 0 9 6 20 6 11 13 20 16 20 2 0 0
-9 -6 -20z m1943 -115 l6 -40 -14 44 c-8 25 -17 61 -20 80 l-5 36 14 -40 c7
-22 16 -58 19 -80z m-2189 58 c-37 -51 -52 -65 -29 -28 27 45 50 73 54 70 1
-2 -10 -21 -25 -42z m156 17 c-6 -11 -13 -20 -16 -20 -2 0 0 9 6 20 6 11 13
20 16 20 2 0 0 -9 -6 -20z m341 -7 c-12 -20 -14 -14 -5 12 4 9 9 14 11 11 3
-2 0 -13 -6 -23z m-271 9 c0 -5 -7 -17 -15 -28 -14 -18 -14 -17 -4 9 12 27 19
34 19 19z m36 -81 c-15 -28 -28 -51 -31 -51 -3 0 7 25 22 55 15 30 29 53 31
51 2 -2 -8 -27 -22 -55z m1661 17 c-3 -8 -6 -5 -6 6 -1 11 2 17 5 13 3 -3 4
-12 1 -19z m-1907 4 c0 -5 -16 -26 -35 -48 -44 -49 -46 -35 -2 16 35 42 37 44
37 32z m180 0 c0 -5 -7 -17 -15 -28 -14 -18 -14 -17 -4 9 12 27 19 34 19 19z
m2370 -57 c0 -5 -5 -3 -10 5 -5 8 -10 20 -10 25 0 6 5 3 10 -5 5 -8 10 -19 10
-25z m-2627 10 c-3 -9 -8 -14 -10 -11 -3 3 -2 9 2 15 9 16 15 13 8 -4z m1224
-17 c-3 -8 -6 -5 -6 6 -1 11 2 17 5 13 3 -3 4 -12 1 -19z m1713 -13 c0 -5 -5
-3 -10 5 -5 8 -10 20 -10 25 0 6 5 3 10 -5 5 -8 10 -19 10 -25z m-515 -73 c-5
-5 -25 69 -24 88 0 8 7 -7 14 -35 8 -27 12 -51 10 -53z m-1732 73 c-3 -9 -8
-14 -10 -11 -3 3 -2 9 2 15 9 16 15 13 8 -4z m1344 -17 c-3 -7 -5 -2 -5 12 0
14 2 19 5 13 2 -7 2 -19 0 -25z m242 -13 c0 -5 -4 -3 -9 5 -5 8 -9 22 -9 30 0
16 17 -16 18 -35z m375 -15 c5 -17 4 -20 -2 -10 -5 8 -13 26 -16 40 -5 17 -4
20 2 10 5 -8 13 -26 16 -40z m-2364 33 c0 -5 -10 -19 -21 -33 l-21 -25 18 33
c18 32 24 38 24 25z m1815 -11 c3 -8 4 -17 2 -19 -8 -7 -37 9 -37 21 0 18 28
16 35 -2z m256 -98 c22 -71 24 -89 4 -53 -12 23 -46 150 -44 167 1 7 5 -5 40
-114z m-1154 39 c-3 -10 -5 -4 -5 12 0 17 2 24 5 18 2 -7 2 -21 0 -30z m840 5
c-3 -7 -5 -2 -5 12 0 14 2 19 5 13 2 -7 2 -19 0 -25z m240 0 c-3 -8 -6 -5 -6
6 -1 11 2 17 5 13 3 -3 4 -12 1 -19z m57 -113 c30 -122 31 -169 2 -64 -9 34
-19 60 -21 57 -3 -2 0 -20 5 -39 15 -50 11 -70 -5 -26 -8 20 -16 61 -19 90 -2
28 -5 57 -6 62 -4 18 0 35 8 35 5 0 21 -52 36 -115z m345 55 c0 -13 -1 -13 -8
0 -5 8 -12 26 -15 40 l-7 25 15 -25 c9 -14 15 -32 15 -40z m-2186 25 c-3 -9
-8 -14 -10 -11 -3 3 -2 9 2 15 9 16 15 13 8 -4z m23 -22 c-8 -15 -15 -25 -16
-21 0 12 23 58 27 54 3 -2 -2 -17 -11 -33z m1733 2 c5 -19 7 -45 3 -57 l-6
-23 -7 25 c-8 29 -11 90 -4 90 2 0 8 -16 14 -35z m552 13 c11 -21 11 -22 -4
-9 -10 7 -17 17 -17 22 0 15 9 10 21 -13z m-2350 -15 c-12 -20 -14 -14 -5 12
4 9 9 14 11 11 3 -2 0 -13 -6 -23z m1136 -30 c-3 -10 -5 -2 -5 17 0 19 2 27 5
18 2 -10 2 -26 0 -35z m-843 3 c-3 -15 -8 -25 -11 -23 -2 3 -1 17 3 31 3 15 8
25 11 23 2 -3 1 -17 -3 -31z m183 2 c-3 -8 -6 -5 -6 6 -1 11 2 17 5 13 3 -3 4
-12 1 -19z m800 -35 c-3 -10 -5 -2 -5 17 0 19 2 27 5 18 2 -10 2 -26 0 -35z
m-1266 10 c-12 -20 -14 -14 -5 12 4 9 9 14 11 11 3 -2 0 -13 -6 -23z m246 5
c-3 -8 -6 -5 -6 6 -1 11 2 17 5 13 3 -3 4 -12 1 -19z m270 0 c-3 -8 -6 -5 -6
6 -1 11 2 17 5 13 3 -3 4 -12 1 -19z m1722 -18 c0 -10 -3 -8 -9 5 -12 27 -12
43 0 25 5 -8 9 -22 9 -30z m-2208 3 c-12 -20 -14 -14 -5 12 4 9 9 14 11 11 3
-2 0 -13 -6 -23z m-70 -6 c-10 -9 -11 -8 -5 6 3 10 9 15 12 12 3 -3 0 -11 -7
-18z m1574 -85 c10 -57 15 -105 12 -108 -5 -5 -18 67 -33 171 -12 90 4 43 21
-63z m212 86 c-3 -8 -6 -5 -6 6 -1 11 2 17 5 13 3 -3 4 -12 1 -19z m-1150 -25
c-3 -10 -5 -4 -5 12 0 17 2 24 5 18 2 -7 2 -21 0 -30z m-360 5 c-3 -8 -6 -5
-6 6 -1 11 2 17 5 13 3 -3 4 -12 1 -19z m30 0 c-3 -8 -6 -5 -6 6 -1 11 2 17 5
13 3 -3 4 -12 1 -19z m270 -10 c-3 -7 -5 -2 -5 12 0 14 2 19 5 13 2 -7 2 -19
0 -25z m30 10 c-3 -8 -6 -5 -6 6 -1 11 2 17 5 13 3 -3 4 -12 1 -19z m750 -45
c-2 -16 -4 -5 -4 22 0 28 2 40 4 28 2 -13 2 -35 0 -50z m290 15 c-3 -8 -6 -5
-6 6 -1 11 2 17 5 13 3 -3 4 -12 1 -19z m-1387 -25 c-11 -17 -11 -17 -6 0 3
10 6 24 7 30 0 9 2 9 5 0 3 -7 0 -20 -6 -30z m145 -3 c-9 -41 -17 -33 -9 9 4
17 9 30 11 27 3 -2 2 -19 -2 -36z m-108 8 c-3 -8 -6 -5 -6 6 -1 11 2 17 5 13
3 -3 4 -12 1 -19z m710 -55 c-2 -16 -4 -3 -4 27 0 30 2 43 4 28 2 -16 2 -40 0
-55z m-430 25 c-3 -8 -6 -5 -6 6 -1 11 2 17 5 13 3 -3 4 -12 1 -19z m50 -10
c-3 -8 -6 -5 -6 6 -1 11 2 17 5 13 3 -3 4 -12 1 -19z m430 -30 c-2 -13 -4 -5
-4 17 -1 22 1 32 4 23 2 -10 2 -28 0 -40z m-80 -15 c-3 -10 -5 -2 -5 17 0 19
2 27 5 18 2 -10 2 -26 0 -35z m-410 5 c-3 -8 -6 -5 -6 6 -1 11 2 17 5 13 3 -3
4 -12 1 -19z m80 -25 c-3 -10 -5 -4 -5 12 0 17 2 24 5 18 2 -7 2 -21 0 -30z"/>
<path d="M7227 7433 c-4 -3 -7 -11 -7 -17 0 -6 5 -5 12 2 6 6 9 14 7 17 -3 3
-9 2 -12 -2z"/>
<path d="M7065 7237 c-74 -92 -78 -97 -73 -97 3 0 26 26 51 58 25 31 55 67 67
80 12 13 20 25 18 27 -2 3 -31 -28 -63 -68z"/>
<path d="M4982 2870 c0 -14 2 -19 5 -12 2 6 2 18 0 25 -3 6 -5 1 -5 -13z"/>
<path d="M5757 2847 c-17 -45 -4 -137 20 -137 16 0 16 11 -5 115 -6 31 -9 36
-15 22z"/>
<path d="M4967 2781 c-4 -19 -5 -36 -2 -39 10 -11 16 7 13 40 l-3 33 -8 -34z"/>
<path d="M5453 2750 c0 -30 2 -43 4 -27 2 15 2 39 0 55 -2 15 -4 2 -4 -28z"/>
<path d="M5801 2770 c0 -8 4 -24 9 -35 l9 -20 0 20 c0 11 -4 27 -9 35 -9 13
-10 13 -9 0z"/>
</g>
</svg>
